<svg xmlns="http://www.w3.org/2000/svg" viewBox="0 0 364.44 353.68"><title>3Artboard 1 copy 33</title><path d="M357.4,95.25l-.06-.69c-8.54-95-127.9-107.73-190.79-55.35C147,55.5,129.25,75.3,105.28,85.26c-21.74,9-48,9.57-68.66,22.17C9.7,123.82,5.34,159.77,7,188.55a148.29,148.29,0,0,0,33.53,85.28c89,107.68,242.86,31.48,294.76-72.07C351.69,169,360.56,132,357.4,95.25Z" style="fill:#f5f5f5"/><path d="M114.64,45.48c-7.7-4.78-17-4.09-24.6.67C76.82,54.48,79.11,75.3,95.58,77.68,111.15,79.94,132.71,56.7,114.64,45.48Z" style="fill:#f5f5f5"/><path d="M338.71,53.48a26.1,26.1,0,0,0-5.49-4.42L310.37,33.9C303.78,29.53,298.1,23.6,291,20a8,8,0,0,0-5.34-1c-5.17,2.5-9.5,7.15-13.84,10.84-1.21,1-2.44,2.05-3.67,3.07C258,42.24,247.7,51.53,237.31,60.64c-5.46,4.78-10.88,9.63-16.43,14.31-4.44,4.25-8.91,8.47-13.54,12.51-5.75,5-11.65,9.85-17.47,14.78-1.61,1.76-2.49,3.69-2.46,7.49.1,13.48,23.52,26.9,32.38,35.33,8.11,7.72,17.44,12.84,26.09,19.89a27,27,0,0,0,7.05,4.22,10.71,10.71,0,0,0,5.93.73,12.71,12.71,0,0,0,4.86-2.36,38.2,38.2,0,0,0,5.47-4.93q3-4.2,6.17-8.3a58.63,58.63,0,0,1,6.26-9.93c1.68-2.09,3.52-4,5.36-6q2.29-2.83,4.61-5.66,3.5-4.91,7-9.83a69.71,69.71,0,0,1,5.2-7.47c.39-.49.78-1,1.16-1.46l5.19-7.17,10.83-16c2.63-4.23,5.33-8.42,8.32-12.42.3-.4.61-.78.91-1.18l7.3-10.74C339.91,61.72,343.08,58.57,338.71,53.48Z" style="fill:#989898"/><path d="M332.49,53.39c-.12-.08-1.91-1.32-3.28-2.23-.5-.25-1-.51-1.48-.79-.86-.49-1.69-1-2.52-1.57a8.7,8.7,0,0,1-.89-.6c-1.26-.85-2.53-1.7-3.82-2.51-.69,1.25-1.62,2.54-2.84,2.57a6.13,6.13,0,0,1-3.27-1.42c-.63-.45-1.37-.77-2-1.23s-1.43-1-2.13-1.56c-1.41-1.06-2.73-2.23-4.14-3.28a15.24,15.24,0,0,1-3.53-3.41,2,2,0,0,1,.08-2.65A9.18,9.18,0,0,1,304.12,33a.61.61,0,0,0,0-.3c-1.72-1.46-3.7-2.77-5.42-4.06-1.53-1.15-3.22-2-4.79-3.08-.59-.41-1.14-.86-1.7-1.29-.87-.43,2.18,2.16,1.4,1.89-1.49-.51-5.35.3-6.47,1.3l-93.87,79.3c-4.31,4.31-.89,8.78,2.8,12,5,4.32,10.22,8.4,15.29,12.62q15,12.5,29.91,25.19a35.07,35.07,0,0,0,6.71,4.88c3.31,1.67,8.72,3.8,11.05.3,2-2.95,74.73-101.88,74.73-101.88C335.63,57.09,335.06,55.25,332.49,53.39Z" style="fill:#fff"/><path d="M334.27,51a1.5,1.5,0,0,0,.43-.76c.05-.18.87-.17.91-.36C335,48.77,333.09,47.71,332,47q-2.79-1.83-5.52-3.74c-6.08-4.23-12-8.67-18-13l-2.39-1.75C301,24.8,296,20.31,289.85,18.5c-2.87-.85-4.31-.3-6.56,1.42-1.19.91-2.51,1.7-3.71,2.6a8,8,0,0,0-1.49,1.08c-1,1-1.24,1.2-2.25,2.14a1.34,1.34,0,0,0-1.29-.82,1.5,1.5,0,0,0-.79,2.72l-2.27,2.06a1.28,1.28,0,0,0-2.21-.34A11.68,11.68,0,0,1,267.2,31c-.57.44-1.15.84-1.74,1.25-1.07.74-2.48,1.77-2.41,3.24a1.43,1.43,0,0,0,.55,1.08l-1,.83a1.31,1.31,0,0,0-1.23-.71c-2,0-3.42,2.22-4.87,3.39s-4.16,2.24-4.18,4.55a1.3,1.3,0,0,0,.57,1.15c-.66.56-1.31,1.13-2,1.7-8.67,7.6-17.34,15.17-26,22.8-7.43,6.55-14.44,14.12-22.25,20.21-4,3.12-7.61,6.46-11.34,9.93-2.25,2.1-4.43,4.78-4.78,8-.21,1.88,2.74,1.87,2.94,0,.37-3.35,5.45-6.94,8.23-9.6,3.4-3.23,7.2-6,10.52-9.33,6.62-6.64,13.87-13,21.06-19,8.52-7.11,16.67-14.64,25-22,4.29-3.8,8.78-7.22,13-11.08,3.52-3.19,5.95-4.09,9.43-7.31a12.79,12.79,0,0,0,3.88-2.59c1.1-2,4.16-5.49,6.36-6,3.28-.76,7.4,2.37,10.19,4.1a141.2,141.2,0,0,1,12.89,9.55,185.32,185.32,0,0,0,23.49,16A2,2,0,0,0,334.27,51Z" style="fill:#bcbcbb"/><path d="M294.93,26.19l-1.3-1.29c-4.54-3.2-10.36,3.88-10.36,3.88l-22,18.14L220.7,82.3,194,106.2c-8.17,6.27,3.54,13.77,3.54,13.77l43.89,36.87,55.8-129.22C295.85,26.74,296.23,27.11,294.93,26.19Z" style="fill:#f5f6f6"/><path d="M297.71,32.46a38.45,38.45,0,0,1-4,11.22A31.78,31.78,0,0,0,290,51.87a37.22,37.22,0,0,1-3.56,10.43,79.85,79.85,0,0,0-4.59,10.47c-2.89,7.62-7,14.42-9.59,22.21A75.72,75.72,0,0,1,267,106.72c-.28.52-4.35,9.65-3.38,9.44-1.85.4-1.07,3.24.78,2.84l.13,0a1.44,1.44,0,0,0,1-1c1.87-7.63,6.86-14,9.38-21.43,2.71-8,6.89-15.11,9.84-23,2.55-6.78,6.72-12.72,8-19.88.7-3.94,2.78-7,4.56-10.45a38.78,38.78,0,0,0,3.26-10C300.93,31.39,298.09,30.6,297.71,32.46Z" style="fill:#f5f6f6"/><path d="M211.38,247.45c-2.3-2-3.91-1.31-6.61-.8-7.43,1.39-14.71,3.3-22,5.39-3.26.93-6.26,2.59-9.54,3.44a109,109,0,0,1-11.37,2,33.37,33.37,0,0,1-11.54-.29c-2.2-.53-3.79.07-3.62-2.17.18-2.41,3-4,4.72-5.47,6-5.26,11.69-9,18.28-13.53,5.55-3.81,12.45-7.23,18-11s12-5.86,17-10a10.2,10.2,0,0,0,4-6,16,16,0,0,0-.42-6.8c-1.21-4.47-6.27-4.45-9.93-3-7,2.83-13.48,7.25-19.89,11.23-6.77,4.2-13.52,8.66-20.68,12.17-3.41,1.66-6.66,3.53-9.94,5.41-2.63,1.51-7.1,5.19-10.07,4-4.43-1.84,2.39-8.86,3.76-10.67a102.68,102.68,0,0,1,8.14-9.52c4.92-5.12,10-8.82,15-13.81,2.07-2.05,3.71-5.75,6-7.56a103.79,103.79,0,0,0,9-7.63c2.56-2.56,5.35-5.31,7.67-8.07a9.55,9.55,0,0,0,2.12-7.23c-.37-4.61-3.39-8.44-8.36-7.84-5.46.66-10.51,6.59-13.72,10.56A51.58,51.58,0,0,1,158,179c-2.81,2.18-4.82,5.2-7.49,7.55-5,4.45-10.17,9.66-14.8,14.49-1.82,1.9-3.06,2-5,4-2.43,2.55-3.11,4-6,6,1.45-1.82-2,2-2,2-1.17.93-4.63,4.43-5.45,1.79-.5-1.62,1.12-4.1,1.71-5.45,1.39-3.12,2.88-6.19,4.33-9.28,2.43-5.22,6.26-9.48,9.44-14.23,3.41-5.1,6.36-10.49,10.1-15.36.53-.88,1.11-1.76,1.73-2.63,2.51-3.5,7.46-7.83,9.14-11.84a11,11,0,0,0-1-11c-4.47-6-12.18,4.8-15.61,7.83a99.16,99.16,0,0,0-9.51,9.61c-3.62,4.15-7,8.41-10.48,12.71-2.57,3.21-4.46,6.87-6.77,10.27-3,4.37-6.39,8.47-9.55,12.7A131.87,131.87,0,0,1,78.49,221c-2.67,2.21-4.75,2.8-8,3.74-1.76.52-3.84,2-5.56,2.33-5.28,1-2.27-8.45-2.32-11.68-.09-6,1.19-12.36,1.15-18.34a35.69,35.69,0,0,0-1-7c-.5-2.57-1.62-4.85-2.13-7.44a18.79,18.79,0,0,0-13-14.26,5,5,0,0,0-3.52.4c-.9.42-1,1.62-1.15,2.49a31.52,31.52,0,0,0-.4,5c-.14,3.67-.54,7.34-.59,11-.06,4.21.1,8.38-.34,12.58a42.51,42.51,0,0,1-2.85,11,95.65,95.65,0,0,0-5.67,21.26c-.87,7.14-.79,14.74-1.37,21.9-.54,6.75,1,12.91,1.3,19.66.16,3.37,0,8-1.63,11.1-1.76,3.44-6.39,6.44-9,9.37-2.44,2.72-5.23,4.89-7.87,7.35-1.66,1.54-5.6,3.09-5.79,5.52-.23,3,2.84,7.68,4.25,10,1.65,2.7,4.36,7.27,6,10,3,5,5.24,6.56,8.26,11.6,2.42,4.06,7.21,9.32,11.49,11.4,2.49,1.21,1.68.69,3.37,0,.94-1,3.11-3.51,3.8-4.4,1-1.31,2.76-2.38,3.83-3.64a18.48,18.48,0,0,1,5-4c6-3.68,11-8.79,17.12-12.36,3.1-1.8,7.59-2.25,10.88-3.64,3.63-1.53,6.69-3.16,10.38-4.67a121.54,121.54,0,0,0,18.67-10.05c6.18-3.92,12.6-7.14,18.39-11.67,5.24-4.11,11.31-6.78,15.81-11.92s11.38-8.38,18-10.2c3.36-.93,7.35-1.64,10.76-2.49,4-1,6.26-1.11,10-2,6.75-1.6,13.8-2.73,20-6a43.68,43.68,0,0,0,7-5,6.32,6.32,0,0,0,2-5A9.55,9.55,0,0,0,211.38,247.45Z" style="fill:#fff"/><path d="M295.31,26.43a1.38,1.38,0,0,0-.35-.5,10.08,10.08,0,0,0-1.53-1.13c-.1.76-.16,1.53-.19,2.3,0,.27,1.55,1.52,1.79,1.62A3.06,3.06,0,0,0,295.31,26.43Z" style="fill:#febb12"/><path d="M333.34,77.07c1,.71,2,1.39,3,2.07a5.22,5.22,0,0,0,1.15-3.76C336.08,75.9,334.43,76.05,333.34,77.07Z" style="fill:#febb12"/><path d="M331.88,53c-1.11-.93-4.17-2.49-6.3-4,0,1.8-.23,4.09,1.23,5.26a.4.4,0,0,1,.47.16c1.31.2,2.45,1,3.83.79a11,11,0,0,0,2.76-.86C333.22,53.8,332.43,53.41,331.88,53Z" style="fill:#febb12"/><path d="M325.33,54c-.88-1.59-.56-3.86-.71-5.57a.61.61,0,0,1,0-.15c-7.27-5.34-14.24-11-21.44-16.45,0,0,0,0,0,0a44.66,44.66,0,0,0-6.8-4.69,15.76,15.76,0,0,0,.33,3.68.52.52,0,0,1-.55.55,3.78,3.78,0,0,1-1.38-.18c-.77-.38-.28-.62-.32-1.22,0-.34-1.25-1.94-1.59-1.8a.42.42,0,0,1-.33,0c-1.31-.57-2.65-1.07-4-1.62,0,0-1.25,2.34-1.34,2.56s4.17.75,4.45.79c.47.06.47.79.05.94a10,10,0,0,1-1.74.41c.85.73,1.69,1.46,2.56,2.16,1.49,1.21,3.24,2.28,4.74,3.53a1.7,1.7,0,0,0,.45.53c6.85,5.13,13.24,10.86,20,16.14A24.12,24.12,0,0,1,325.33,54Z" style="fill:#febb12"/><path d="M318.83,54.43c.91.71,1.83,1.4,2.76,2.09a7.2,7.2,0,0,1,3.31-1.62A25.34,25.34,0,0,0,318.83,54.43Z" style="fill:#febb12"/><path d="M330,59.38a12.11,12.11,0,0,0,.47-3.24,20.87,20.87,0,0,1-3.05-.75,6.46,6.46,0,0,1-1.3,4.28l.23.16,1.2.77,1.65,1c.2-.49.39-1,.55-1.45A.57.57,0,0,1,330,59.38Z" style="fill:#febb12"/><path d="M333.55,60.37l.46-.66c.84-1.23,1.5-2.81.87-4.27a1.65,1.65,0,0,0-.26-.44,14.69,14.69,0,0,1-3.24,1.08,13.33,13.33,0,0,1-.34,3.39A12.76,12.76,0,0,1,333.55,60.37Z" style="fill:#febb12"/><path d="M259.05,161.75c.24-.36,1.51-2.11,3.54-4.9a4.48,4.48,0,0,0-.22-.71c-.73-1.77-3.17-2.69-4.55-3.88-1.72-1.48-6.55-4-9.8-6.4-11.48-8.57-22.42-17.76-33.77-26.54,0,0,0,0,0,0-3.89-3.45-8.66-5.65-12.49-9.11-1.77-1.6-3.87-3.12-6.39-3a4,4,0,0,0-2.43,0c-3.69,4.18-.4,8.46,3.17,11.55,5,4.32,10.22,8.4,15.29,12.62q15,12.5,29.91,25.19a35.07,35.07,0,0,0,6.71,4.88C251.31,163.12,256.72,165.25,259.05,161.75Z" style="fill:#febb12"/><path d="M336.75,50.66l-.45-.33a6.82,6.82,0,0,0-1.11-.68,1.48,1.48,0,0,0-.87,2.48c2.42,2.44,4.34,5.33,3.35,9-.81,3-.9,2.67-2.59,5.18l-.75,1.12a.93.93,0,0,0-.95-1,1,1,0,0,0,0,2,.94.94,0,0,0,.3-.06l-1,1.51a12,12,0,0,0-.9-1.29,6.34,6.34,0,0,0-1.4-1.57,7.48,7.48,0,0,0-1.83-.8.71.71,0,0,0-.06-.62c.08-.14.15-.28.2-.38.29-.64.54-1.3.83-2,.19-.43.34-.86.5-1.3a.39.39,0,0,0,.06-.15,1,1,0,0,0,.07-.25h-.08a.49.49,0,0,0-.46-.38c-.46,0-.73.33-.9.7l-.08,0L328,63.67c-.23.57-.63,1.22-.94,1.89-.87.19-1.72.52-2.57.75s-1.74.44-2.6.74c0-.12,0-.24,0-.35.29-2.75,1.88-3.87,3.57-5.49l1.21-.13a1.11,1.11,0,0,0-.71-1.72l-.49.26a.59.59,0,0,0-.5.2l-.17.16,0,0a.56.56,0,0,0-.22.24c-.55.55-1.06,1-1.53,1.53a.52.52,0,0,0,0-.21,14.21,14.21,0,0,1-1.19-3.14.75.75,0,0,0-.1-.6,8.15,8.15,0,0,1,0-1.49l-1.32-.79a8.54,8.54,0,0,0-.19,1.89c-1-.13-1.9-.34-2.86-.44-1.25-.13-1.7-.2-.76-1.31a18.56,18.56,0,0,1,1.67-1.44c-.36-.22-.71-.46-1.06-.69-.21.17-.42.34-.64.49-1.15.8-1.34.78-1.71,2.22-.25,1-.48,1.35.43,1.93.66.41,2.45.2,3.22.32.62.1,1.25.2,1.87.27a11.28,11.28,0,0,0,.91,2.25c-1.82-.31-4.25-.69-5.41-.1-1.77.9-1.16,4.38-2.14,5.86-.48.73.68,1.4,1.16.68.85-1.29.39-3.95,1.42-4.91s4.51-.21,6,0c.05,0,.08,0,.13,0-.48,0-1.28,2-1.41,2.42a10.49,10.49,0,0,0-.59,3.28,11.33,11.33,0,0,1,.08,3.13A6.43,6.43,0,0,1,319.15,74a18.32,18.32,0,0,1-3.24,2.91c-1.9-.38-3.83-.82-5.75-1.1.15-.79.36-1.59.51-2.37.22-1.12.37-2.25.69-3.35a.65.65,0,0,0,0-.34.61.61,0,0,0-.18-.41c-1.26-1.33-3.52-1.49-5.18-2a33.83,33.83,0,0,0-3.39-1c-1.61-.3-2.74-.38-3.19-2a.65.65,0,0,0-.3-1.08c-1.14-.27-2.2-.86-3.33-1.18a3.37,3.37,0,0,0-.34-.09.5.5,0,0,0-.07-.39c.1-.52.17-1.05.29-1.56a6.54,6.54,0,0,1,.44-1.36,7.49,7.49,0,0,0,.41-.63c.39-1-.74-1.8-1.49-2.45h0a1.24,1.24,0,0,0-1-.15.45.45,0,0,1-.25,0l-.1.15c-.88-1.42-2.73-2-4.21-2.63-2.29-1-4.76-3.55-7.33-3.55a.68.68,0,0,0,0,1.35c2,0,4.31,2.28,6.07,3.11,1.3.62,3.92,1.16,4.47,2.67a.7.7,0,0,0,1.34-.09,9,9,0,0,1,1.2,1.11,11.61,11.61,0,0,0-1.2,4c-.51-.12-1-.23-1.54-.36a.67.67,0,0,0-.35,1.29c1.1.28,2.2.49,3.31.81.88.26,1.72.67,2.59,1a3.45,3.45,0,0,0,3.06,3.12c1.57.35,3,.74,4.56,1.19,1.26.37,3.23.54,4.33,1.42-.3,1.13-.49,2.31-.69,3.46-.11.63-.26,1.25-.4,1.87a.54.54,0,0,0-.35,0,14.8,14.8,0,0,0-2.37,1.46,21.46,21.46,0,0,1-2.1,1.55c-.71-.06-1.39-.27-2.09-.36a6.15,6.15,0,0,1-1.35-.23c-.35-.12-.59-.41-1-.26s-.71.3-1.05.46-.67.27-1,.44a6.33,6.33,0,0,0-1.42,1.11.67.67,0,0,0,.95,1,5.11,5.11,0,0,1,1.56-1.09c.34-.15.71-.28,1.05-.44a10,10,0,0,0,2,.38c.61.07,1.21.2,1.81.3a.58.58,0,0,0,.63.17l.23-.11a.39.39,0,0,0,.15-.06,11.1,11.1,0,0,0,1.78-1.3,14,14,0,0,1,2.25-1.5l.16.05a50.73,50.73,0,0,1,5.75,1c-.48.35-1,.7-1.39,1.06a6.84,6.84,0,0,0-2.27,2.7c-.3.87,0,1.83-.49,2.7-.93,1.81-3.33,1.92-5.21,1.89-1.52,0-5.13-1.4-6.75-.6a18.9,18.9,0,0,1-1.56,1.41c-2.1,1.69-4.3,3.27-6.52,4.81-2.39,1.66-5.38,2.27-7.81,3.73-.32.58-.46,1.25.25,1.32a1.85,1.85,0,0,0,1-.23,1.43,1.43,0,0,1,.15-.11c2.77-1.73,5.82-2.54,8.5-4.56,1.05-.79,2.07-1.62,3.12-2.42.49-.37,1-.75,1.52-1.09s1.08-.48,1.55-.8c2.22-1.49,5.69.09,8.38-.25,1.4-.18,3.35-.43,4.3-1.6s.58-3,1.22-4.23a6.31,6.31,0,0,1,2-2.08c.41-.3.83-.58,1.26-.86a7.67,7.67,0,0,0,1.13-.63c1.58-1.51,4.28-3.17,4.79-5.44a16.48,16.48,0,0,0,.2-3.8c.57.09,1.14.18,1.72.32a6.93,6.93,0,0,0,2.37.46,1.08,1.08,0,0,0,.29-.13c.23-.25.46-.49.7-.72s.22-.34.34-.5a5,5,0,0,1,.37-.43h.18l.55-.63a6.52,6.52,0,0,1,1.25.5A4.66,4.66,0,0,1,331,69.28a9.86,9.86,0,0,1,1.07,1.62c-1.64,2.51-3.37,5.14-4.76,7.1-2.06,2.89-3.75,6.16-5.94,9S317,93,314.76,96c-4.67,6.38-9.44,12.7-14.42,18.84-3.11,4.48-5.36,9.38-8.87,13.6-4.05,4.88-7.91,9.87-11.87,14.8-4.08,5.09-6.61,10.95-11.17,15.73a44.33,44.33,0,0,0-3.32,4.39,16,16,0,0,1-1.91,1.86c-1.24,1.19-1.84,3-3.46,3.75a7,7,0,0,1-3.1.6c-2.34-.1-4.55-1.32-6.53-2.48-3.16-1.87-6.1-4.2-9.09-6.33-3.82-2.71-7.49-5.77-11.11-8.74-2.79-2.27-5.88-4-8.75-6.17A206.22,206.22,0,0,1,203,130.42c-5.66-5.37-14-11.3-14.21-19.89a1.55,1.55,0,0,0-1.75-2l-.13,0a1.5,1.5,0,0,0-1.08,1.42c-.23,9,6.76,14.57,12.64,20.19,6.8,6.5,13.86,13.19,21.6,18.58,8.6,6,16.71,12.64,25.26,18.74,3.21,2.3,7.35,5.37,11.44,5.56a7.64,7.64,0,0,0,3.92-.9,11.73,11.73,0,0,0,3-2.68c.52-.57,1.06-1.11,1.61-1.65,1.87-2.53,3.88-4.95,5.89-7.38a37.88,37.88,0,0,1,3.38-4.29,41.67,41.67,0,0,1,3.24-4.47c.82-1.47,1.64-3,2.56-4.38,2.12-3.28,5-6,7.39-9.05,2.25-2.83,4.27-5.84,6.62-8.61,3.57-4.19,5.8-9.4,9.15-13.78s7.44-8.66,10.56-13.45a139.3,139.3,0,0,1,9.38-12.25c5.6-6.82,9.25-15.17,14.2-22.46a35.55,35.55,0,0,0,2.44-4.12,17.13,17.13,0,0,0,.78-2.63C341.78,56.43,339.25,53.73,336.75,50.66Zm-10.4,16.59a6.3,6.3,0,0,1-.51.7c-.39.34-.38.23-.85.19a13.32,13.32,0,0,1-1.36-.23l1.17-.3c.57-.16,1.15-.38,1.74-.56Z" style="fill:#444"/><path d="M290.29,32c.11-.73-.43-.59-1-.46h-.09A28.56,28.56,0,0,0,283.73,37c-1.69,2-.45,3-.05,5.63.2,1.32.3,2.66.54,4,.21,1.15,1,3.08.18,4.06-.43.48.28,1.19.7.7,1.56-1.77-.06-5.81-.31-7.81-.12-.94-.15-1.92-.33-2.84-.08-.41-.44-1-.48-1.35-.22-2.11,3-4.46,4.38-5.67a16.56,16.56,0,0,1,1.89-1.52S290.28,32.05,290.29,32Z" style="fill:#444"/><path d="M294.05,34.12c-.14-.23-.31-.45-.61-.43-.62,0-.28.77-.2,1.2.31,1.67,1.05,3.41,1,5.11a.5.5,0,0,0,1,0,16.52,16.52,0,0,0-.79-4,6.35,6.35,0,0,0-.38-1.85Z" style="fill:#444"/><path d="M281.21,18a28.83,28.83,0,0,0-3.08-.58,11.45,11.45,0,0,0-3.09-.66.51.51,0,0,0-.43.56c0,.48.41.79.72,1.12a13.48,13.48,0,0,1,1.59,1.71.46.46,0,0,0,.35.21.26.26,0,0,0,.09.05c.65.23,1.2-.15,1.82-.38a6.74,6.74,0,0,0,2.12-1.16C281.55,18.6,281.6,18.09,281.21,18Z" style="fill:#febb12"/><path d="M272.45,18.24a14.91,14.91,0,0,0-1.51-.29,5.73,5.73,0,0,0-1.52-.32.26.26,0,0,0-.22.27c0,.24.21.39.36.56a6.17,6.17,0,0,1,.78.84.21.21,0,0,0,.17.1l.05,0c.32.11.59-.08.89-.19a3.34,3.34,0,0,0,1.05-.57A.25.25,0,0,0,272.45,18.24Z" style="fill:#febb12"/><path d="M272,22.31a11.79,11.79,0,0,0-1.4.64,5.68,5.68,0,0,0-1.43.62.26.26,0,0,0,0,.35c.14.19.39.19.61.24a7.3,7.3,0,0,1,1.13.23.21.21,0,0,0,.19,0h.05c.33-.1.44-.4.63-.67a3.37,3.37,0,0,0,.52-1.08C272.3,22.46,272.18,22.24,272,22.31Z" style="fill:#febb12"/><path d="M328.54,71.36c0,.13-.32.51-.38.75a1,1,0,0,0,1.93.53c.05-.21.31-.47.37-.75C330.74,70.64,328.81,70.1,328.54,71.36Z" style="fill:#444"/><path d="M71.45,320.24a2.75,2.75,0,0,0-4-.71c-7.12,4.91-16,7.19-23.51,11.67-5.27,3.17-13.85,7.93-9.72,15.38,3.95,7.13,10.61,2.72,14.53-1.77,6.25-7.18,14.91-11.92,22-18.21A3.21,3.21,0,0,0,73,323.55V323A3.39,3.39,0,0,0,71.45,320.24Z" style="fill:#f5f5f5"/><path d="M63.05,229.71c-2.07,2.3,2.19,7.07,6,8.21,3.25-1.56,8.27-5.41,10.24-8.45s3.76-7.28,1.34-9.28L78.44,222c-1.27.65-2.57,1.26-3.84,1.9-1.08.53-2.06,1.06-3.18,1.48-1.66.62-2.86.05-1.86,1.65-.07-.11-.15-.19-.22-.29a3.38,3.38,0,0,0-3.45-1.54l-.6.1a3,3,0,0,0-1.72,1.12,1.05,1.05,0,0,0-.68.41c-4.6,6-10.72,9-17.31,12.31-1.16.57-.14,2.29,1,1.72C52.84,237.78,58.46,234.81,63.05,229.71Z" style="fill:#f5f5f5"/><path d="M154.53,277.6s0,0,0-.07c.16-.82,5-2.3,6.07-2.56,2.8-.73,5.7-1.15,8.52-1.79.93-.22,1.87-.42,2.81-.62,5.14-1.76,10.41-3.16,15.69-4.47,9.78-2.42,21-3.55,26-13a3.67,3.67,0,0,0-4.87-.86,10.32,10.32,0,0,0-.88.69,11.75,11.75,0,0,1-3,2.2c-1.78.76-3.66,1.19-5.5,1.78-2.91.93-5.74,1.63-8.72,2.28-5.64,1.22-11.18,3.06-16.83,4.39-8.28,1.95-16.65,1.72-21.77,9.89-1.07,1.72-1.14,2.75-.49,3.52C152.52,278.49,153.52,278,154.53,277.6Z" style="fill:#f5f5f5"/><path d="M204.22,214.58c1.16-1,2.37-2.47,3.62-3.61.87-2.32.77-4.63.71-7.07a3.07,3.07,0,0,0-2.44.29c-2.05,1.14-3.49,3.19-5.17,4.77a39.17,39.17,0,0,1-6,4.41c-6.25,3.9-12.41,8-18.8,11.63a161.31,161.31,0,0,0-18.74,13.05c-3,2.36-6,4.7-9.12,7-2.1,1.55-4.75,2.9-6.41,4.95-1.47,1.82-1.13,4.76,1.43,5.43l.22.06a3.06,3.06,0,0,0,3.62-1.63c1.92-2,4.85-3.56,7-5.12,2.84-2.11,5.6-4.31,8.41-6.47a161.62,161.62,0,0,1,19-12.82c6.11-3.43,11.87-7.57,17.81-11.29A41.64,41.64,0,0,0,204.22,214.58Z" style="fill:#f5f5f5"/><path d="M188.8,172.73a10,10,0,0,0-.06-7.5c-1.71-.89-4-.49-4.46,1.91s-4,4.89-5.69,6.59c-2.46,2.48-5.05,4.6-7.35,7.25-4.2,4.84-9.31,8.63-13.6,13.37-4.58,5.07-9.88,9.49-14.34,14.67-2.46,2.85-5.35,5.41-7.69,8.35-2,2.52-3.4,5.56-5.49,8-2.71,3.16,1.87,7.78,4.59,4.59,2.19-2.55,3.7-5.61,5.77-8.26,2.51-3.21,5.62-6.21,8.38-9.24,5-5.46,10.62-10.23,15.45-15.84,2.16-2.5,4.84-4.38,7.24-6.66s4.6-5.14,7.07-7.57C181.36,179.68,186.16,176.47,188.8,172.73Z" style="fill:#f5f5f5"/><path d="M150.75,147a13.77,13.77,0,0,1-1.24,2.74c-2.48,7.4-8.54,12.46-13.06,19.44a4.46,4.46,0,0,1-2,1.79c-2.06,2.51-4.14,5-6,7.71C121.39,189.12,112.29,201,111.17,214c-.36,4.17,6.14,4.14,6.5,0,.59-6.83,4.69-14,8.29-19.68,3.43-5.37,6.77-11.68,11-16.42a77.89,77.89,0,0,0,9.18-12c2.91-4.84,7.45-9.16,9.06-14.73C156.38,147.17,151.91,143,150.75,147Z" style="fill:#f5f5f5"/><path d="M203,245.17c-9.17.83-17.59,5.17-26.39,7.5a95.7,95.7,0,0,1-15,2.58c-3.81.38-10,1.42-14-.16,1.59-1.29,3.08-2.7,4.78-3.86,2.67-1.82,5.24-3.65,7.77-5.68a139,139,0,0,1,16.63-11.15c6-3.54,11.74-7.42,17.74-10.92,4.86-2.85,9.32-5.23,13.17-9.46,2.82-3.1,4.41-7.18,3-11.36-1.11-3.22-3.81-6.61-7.43-6.93-4.53-.4-10.33,3.24-14,5.44-5.35,3.19-10.44,6.84-15.78,10-5.72,3.41-11.67,6.55-17.45,9.86-3,1.74-6.13,3.4-9.14,5.18L143.85,228a13.42,13.42,0,0,1-3.8,2.18.61.61,0,0,1-.65.11,3.41,3.41,0,0,1-.64,0,1.18,1.18,0,0,1-1-1.12,4,4,0,0,1,.67-2.26c.65-1.59,2.73-3.52,3.61-4.62S144,220,145,218.93a87.24,87.24,0,0,1,7.12-6.74,124.26,124.26,0,0,0,13.23-13.43,83.55,83.55,0,0,1,11.88-11.83c4.22-3.35,9.49-8,12.36-12.61,4.09-6.53-.93-19.23-9.83-16.39-6,1.93-9.58,6.79-13.87,11-5.3,5.2-11.14,9.82-16.09,15.37-2.37,2.66-5.3,4.8-7.59,7.56a50.26,50.26,0,0,1-6.6,7,69.68,69.68,0,0,0-8,7.44c-2.16,2.44-4.79,4.33-7.2,6.58-.53.3-2,1.14-2.28.92a20.73,20.73,0,0,1,1.17-2.28c.79-1.5,1.59-3,2.33-4.52,1.86-3.85,4-7.72,6.2-11.39,3.87-6.47,8.71-12.39,12.61-18.83A165.2,165.2,0,0,1,151,161.39a40.42,40.42,0,0,0,4.6-7.21c.43-1.09.87-2.18,1.25-3.28a5.21,5.21,0,0,0-1.25-5.34,5.3,5.3,0,0,0-.43-.38,8.32,8.32,0,0,0-8.37-2.83c-4.3,1.08-7.66,5.28-10.52,8.36-4.37,4.7-9.14,8.86-13,14-1.75,2.34-3.75,4.49-5.56,6.78a33.73,33.73,0,0,0-2.54,3.63,36.74,36.74,0,0,1-2.65,4.49c-1.25,1.58-2.56,3.1-3.86,4.63a66.79,66.79,0,0,0-7.17,9.58c-4.57,7.85-9.54,14.83-16.92,20.28a67.75,67.75,0,0,1-11,6.94c-2.89,1.37-5.94,3.71-9.23,4.22a32.91,32.91,0,0,1,.06-6.59c.43-4.86.46-9.73.71-14.6.44-8.63-.15-16.55-3.19-24.7-2.34-6.26-7.34-12.83-14.58-13.47-2.44-.22-5.11.44-5.79,3.08-.74,2.86-.64,6.62-.63,9.64-.93,6.52-.18,13.47-.87,19.94-.92,8.67-4.59,16.19-6.63,24.56-3.21,13.15-3.51,26.3-2.86,39.74.2,4.12.49,8.22.78,12.35a35,35,0,0,1,.08,6.06c-.31,2.84-1.79,3.93-3.67,5.8-6.25,6.23-14.14,11.49-19.53,18.48C7.37,306.67,9,308,10,307.46c.69-.37,1-1.2,1.47-1.79a27.19,27.19,0,0,1,2.06-2.24c1.45-1.46,3-2.83,4.55-4.16,3.13-2.67,6.38-5.2,9.29-8.11,1.66-1.66,4.38-3.62,5.77-5.69a3.56,3.56,0,0,0,2,1.55,1.31,1.31,0,0,0,1.62-1.51c-.13-.52-.73-.77-1.08-1.13a2.06,2.06,0,0,1-.73-1.12,6.66,6.66,0,0,1-.68-2.78c0-1.48-.17-3-.24-4.11-.38-6.48-.79-12.91-.89-19.41,0-2.45-.67-4.87-.62-7.33.07-3.34.59-6.75.81-10.08a88.69,88.69,0,0,1,3.86-20.35c2.16-7,4.69-13.26,5.46-20.61.42-3.94.28-7.91.33-11.86.06-4.63.63-9.26.87-13.88.07-1.28-.14-3.4,1.25-4.18,1.18-.67,3.58.05,4.69.48,3.34,1.28,7,5.36,8.74,8.7.48,1.27.92,2.54,1.34,3.73,3.38,9.66,2.62,19.14,2.3,29.17-.17,5.36-1.46,10.89-.4,16.22a18.07,18.07,0,0,0,1.53,4.2,23.24,23.24,0,0,0,2.08,4c.59.79.82,1.74,1.41,2.52,1,1.34,3.31,0,2.28-1.34A20.53,20.53,0,0,1,65.26,228c3.89-1.53,7.47-3.42,11.21-5.33a62.22,62.22,0,0,0,16.25-11.81c4.42-4.65,7.85-10.13,11-15.64a60.46,60.46,0,0,1,7-9.16,53.84,53.84,0,0,0,3.71-4.44c1.42-2,2.25-4.36,3.62-6.4s2.95-3.85,4.5-5.71c3.39-4,6.3-8.21,10.39-11.59,2.86-2.35,5-5.32,7.59-8a20,20,0,0,1,4.65-4c1.2-1.08,3.53-.74,4.95-.4a5.71,5.71,0,0,1,2,.92c.22.13.44.27.67.43a6.08,6.08,0,0,1,1.49,1.52c.82,3.6-4.25,9.85-6,12.13s-3.52,5-5.33,7.4c-4.48,6.06-8.11,12.71-12.37,19a242.38,242.38,0,0,0-13.28,22.81c-.8,1.5-2.8,3.92-1.69,5.65,1,1.57,3.77,1.4,5.12.58,4.21-2.53,7.09-6.31,10.44-9.82,3.53-3.71,8-6.3,11.24-10.29,7.65-9.38,17.24-16.83,25.7-25.43,3.75-3.8,9.48-11.91,15.67-9.6,3.9,1.45,5.19,6.76,4.15,10.53-.83,3-4.33,5.72-6.39,7.89-3.87,4.06-8.49,7.11-12.51,11-3.32,3.18-6.15,7.18-9.08,10.7-3.88,4.67-8.73,8.11-13.15,12.2a65.78,65.78,0,0,0-10.56,12.67c-1.6,2.5-2.72,5.88.83,7.42s8.84-3.3,11.73-5c10.43-6.06,21.09-11.75,31.35-18.06,4.57-2.82,8.89-6.16,13.82-8.32,2.29-1,4.66-2.87,7.17-3.2,5.54-.73,8.52,5.57,6.88,10.21-2,5.63-8.69,9-13.54,11.68-6.48,3.65-12.66,7.88-19.07,11.68-5,3-10.32,5.9-14.86,9.62-2.88,2.37-5.75,4.7-8.85,6.78-1.57,1-3,2.29-4.43,3.48-.78.64-2,1.1-2.63,2a2.07,2.07,0,0,0,1,3.17,20,20,0,0,0,5.71,1.43c4.16.29,8.29-.48,12.42-.94a95.72,95.72,0,0,0,21-4.83c5.19-1.79,25.67-10.35,27.17-.77,1.27,8.17-11.46,11.55-17.34,13.12-8,2.14-15.86,4.4-23.85,6.44-7,1.8-14.12,3.44-20.55,6.94-2.68,1.47-4.34,4.06-6.65,6a114.68,114.68,0,0,1-11,8.64c-6.25,4.12-12.38,8.55-18.81,12.38a222.53,222.53,0,0,1-20.4,10.86c-2.95,1.35-5.89,3.06-8.94,4.32-2.46,1-7,2.84-9.64,1.7a29.06,29.06,0,0,0-4.51-1.58c-1.66-.4-2.36,2.15-.71,2.55a23.81,23.81,0,0,1,3.46,1.23,52.08,52.08,0,0,0-6,3.75c-3.79,2.51-7.69,4.93-11.43,7.49-3.07,2.1-5.52,4.69-8.29,7.15-1.58,1.4-3.21,2.84-4.9,4.12-1,.78-2.08,1.07-2.71,2.21a1.33,1.33,0,0,0,.82,1.91c.93.27,2-.89,2.72-1.39,1.49-1,2.8-2.31,4.2-3.48,3.23-2.72,6-5.85,9.49-8.24s7-4.4,10.43-6.75a46,46,0,0,1,4.27-2.57c2.09-1.15,4.08-2.5,6.27-3.46s4.52-1.08,6.6-2c3.82-1.78,7.69-3.46,11.52-5.24A218.71,218.71,0,0,0,116.55,307c6.74-4.06,13.65-8.64,20-13.34,3.29-2.44,6.57-5.05,9.63-7.77,1.42-1.26,2.51-2.93,3.94-4.14,1.93-1.63,5.12-2.67,7.45-3.58,14.65-5.78,30.84-7.24,45.54-13,5.5-2.16,11.35-5.76,11.65-12.28C215.06,245.72,208.85,244.63,203,245.17Z" style="fill:#444"/><path d="M82.2,232.9c0,10,.08,19.63-2,29.45-1,4.48-2,8.93-3.41,13.31-1.44,4.59-2.65,9.66-5.23,13.75a1.33,1.33,0,0,0,.79,1.94l.28.08A1.3,1.3,0,0,0,74.23,290c2.16-3.72,3.25-8,4.58-12.09a147.13,147.13,0,0,0,3.91-14.87c2.16-10.06,2.12-19.91,2.12-30.15A1.32,1.32,0,0,0,82.2,232.9Z" style="fill:#f5f5f5"/><path d="M107.74,262.41c-.74-5.67-2.76-11.53-4.26-17.06-2-7.31-3.6-14.71-5.47-22a1.32,1.32,0,0,0-2.55.7c1.74,6.79,3.25,13.64,5,20.42,1.53,5.84,3.82,12,4.6,18C105.31,264.07,108,264.09,107.74,262.41Z" style="fill:#f5f5f5"/></svg>